<svg xmlns="http://www.w3.org/2000/svg" viewBox="0 0 500 500"><g id="freepik--Balloon--inject-40"><path d="M330,284.67a124.91,124.91,0,0,0,16.39-22.28" style="fill:none;stroke:#2e353a;stroke-linecap:round;stroke-linejoin:round"></path><path d="M249,324.2a123.6,123.6,0,0,0,76.56-34.95" style="fill:none;stroke:#2e353a;stroke-linecap:round;stroke-linejoin:round"></path><path d="M220.44,323.27a120.89,120.89,0,0,0,12.1,1.2" style="fill:none;stroke:#2e353a;stroke-linecap:round;stroke-linejoin:round"></path><path d="M182.61,309q3.85,2,7.81,3.73" style="fill:none;stroke:#2e353a;stroke-linecap:round;stroke-linejoin:round"></path><path d="M116.52,210.12a124.36,124.36,0,0,0,59.63,95.26" style="fill:none;stroke:#2e353a;stroke-linecap:round;stroke-linejoin:round"></path><path d="M308.68,99a124.32,124.32,0,0,0-122-11" style="fill:none;stroke:#2e353a;stroke-linecap:round;stroke-linejoin:round"></path><path d="M352.44,150.55q-1.85-4.2-4-8.22" style="fill:none;stroke:#2e353a;stroke-linecap:round;stroke-linejoin:round"></path><path d="M304.58,286.8a111.84,111.84,0,0,0,18.23-17" style="fill:none;stroke:#2e353a;stroke-linecap:round;stroke-linejoin:round"></path><path d="M226.18,308.39a111.51,111.51,0,0,0,73.7-18.27" style="fill:none;stroke:#2e353a;stroke-linecap:round;stroke-linejoin:round"></path><path d="M201,302.82q5.14,1.77,10.53,3.07" style="fill:none;stroke:#2e353a;stroke-linecap:round;stroke-linejoin:round"></path><path d="M130.44,229.19q1.13,3.75,2.51,7.4" style="fill:none;stroke:#2e353a;stroke-linecap:round;stroke-linejoin:round"></path><path d="M152.65,124.22a112.19,112.19,0,0,0-23.94,98.52" style="fill:none;stroke:#2e353a;stroke-linecap:round;stroke-linejoin:round"></path><path d="M284.89,95.5a112.1,112.1,0,0,0-110.15,9" style="fill:none;stroke:#2e353a;stroke-linecap:round;stroke-linejoin:round"></path><path d="M341.91,156.12a112.38,112.38,0,0,0-47.46-55.61" style="fill:none;stroke:#2e353a;stroke-linecap:round;stroke-linejoin:round"></path><path d="M346.74,171.6c-.62-2.69-1.35-5.34-2.17-7.95" style="fill:none;stroke:#2e353a;stroke-linecap:round;stroke-linejoin:round"></path><path d="M342.14,198.21c0-1.32,1.18-2.66,1.13-4s-1.33-2.57-1.42-3.87,1-2.74.84-4-1.52-2.46-1.71-3.76.78-2.8.53-4.09-1.69-2.34-2-3.62.56-2.85.23-4.12-1.87-2.2-2.26-3.46.35-2.89-.08-4.12-2-2.06-2.51-3.28.13-2.91-.39-4.11-2.18-1.9-2.75-3.08-.09-2.91-.7-4.07-2.31-1.72-3-2.86-.3-2.89-1-4-2.44-1.55-3.18-2.63-.52-2.86-1.3-3.92-2.54-1.36-3.36-2.39-.73-2.81-1.59-3.81-2.64-1.17-3.53-2.13-.94-2.75-1.87-3.68-2.72-1-3.68-1.87-1.14-2.67-2.13-3.53-2.79-.77-3.81-1.59-1.34-2.58-2.39-3.36-2.83-.56-3.92-1.3-1.52-2.48-2.64-3.18-2.86-.34-4-1-1.7-2.35-2.86-3-2.89-.13-4.07-.7-1.87-2.22-3.08-2.75-2.88.09-4.11-.39-2-2.07-3.28-2.51-2.86.31-4.12-.08-2.19-1.91-3.46-2.25-2.83.52-4.12.22-2.32-1.74-3.62-2-2.78.73-4.09.53-2.44-1.56-3.75-1.71-2.73.94-4,.84-2.56-1.37-3.88-1.42-2.64,1.14-4,1.14-2.65-1.19-4-1.14-2.57,1.33-3.88,1.42-2.73-1-4-.84-2.46,1.52-3.75,1.71-2.8-.78-4.09-.53-2.34,1.69-3.62,2-2.85-.56-4.12-.22-2.21,1.86-3.46,2.25-2.89-.35-4.13.08-2,2-3.27,2.51-2.91-.13-4.11.39-1.9,2.18-3.08,2.75-2.91.09-4.07.7-1.73,2.31-2.86,3-2.9.31-4,1-1.55,2.43-2.63,3.17-2.86.52-3.92,1.3-1.36,2.54-2.39,3.37-2.81.72-3.81,1.58-1.17,2.64-2.13,3.53-2.75.94-3.68,1.87-1,2.72-1.87,3.68S157.7,128,156.84,129s-.77,2.78-1.59,3.81-2.58,1.33-3.36,2.39-.56,2.83-1.3,3.91-2.48,1.52-3.18,2.64-.34,2.86-1,4-2.36,1.7-3,2.87-.13,2.88-.7,4.06-2.22,1.88-2.75,3.08.09,2.88-.39,4.11-2.08,2-2.51,3.28.3,2.86-.08,4.12-1.92,2.19-2.26,3.46.52,2.84.23,4.12-1.74,2.32-2,3.62.74,2.79.54,4.09-1.56,2.44-1.71,3.76.94,2.72.84,4-1.38,2.55-1.42,3.87,1.13,2.65,1.13,4-1.18,2.65-1.13,4,1.33,2.57,1.42,3.88-1,2.73-.84,4,1.52,2.46,1.71,3.75-.78,2.81-.54,4.1,1.7,2.33,2,3.61-.57,2.86-.23,4.12,1.87,2.21,2.26,3.46-.35,2.89.08,4.13,2,2.05,2.51,3.28-.13,2.9.39,4.1,2.18,1.9,2.75,3.08.08,2.91.7,4.07,2.31,1.73,3,2.87.3,2.89,1,4,2.44,1.55,3.18,2.63.52,2.86,1.3,3.92,2.54,1.36,3.36,2.39.73,2.82,1.59,3.81,2.64,1.17,3.53,2.14.94,2.75,1.87,3.68,2.72,1,3.68,1.86,1.14,2.68,2.13,3.53,2.78.77,3.81,1.59,1.34,2.58,2.39,3.36,2.83.56,3.92,1.3,1.52,2.48,2.64,3.18,2.86.34,4,1,1.7,2.36,2.86,3,2.88.13,4.07.7,1.87,2.22,3.08,2.75,2.88-.09,4.11.39,2,2.08,3.28,2.51,2.86-.3,4.12.08,2.19,1.92,3.46,2.26,2.83-.52,4.12-.23,2.32,1.74,3.62,2,2.78-.74,4.09-.54,2.44,1.56,3.75,1.71,2.73-.94,4-.84,2.56,1.38,3.88,1.43,2.64-1.14,4-1.14,2.66,1.18,4,1.14,2.57-1.33,3.87-1.43,2.74,1,4,.84,2.46-1.52,3.76-1.71,2.8.78,4.09.54,2.34-1.7,3.62-2,2.85.57,4.12.23,2.21-1.87,3.46-2.26,2.89.35,4.13-.08,2.05-2,3.27-2.51,2.91.14,4.11-.39,1.9-2.18,3.08-2.75,2.91-.08,4.07-.7,1.73-2.31,2.86-3,2.89-.3,4-1,1.55-2.44,2.63-3.18,2.86-.52,3.92-1.3,1.36-2.54,2.39-3.36,2.81-.73,3.81-1.59,1.17-2.64,2.13-3.53,2.75-.94,3.68-1.87,1-2.71,1.87-3.68,2.67-1.14,3.53-2.13.77-2.78,1.59-3.81,2.58-1.33,3.36-2.39.56-2.83,1.3-3.92,2.48-1.52,3.18-2.63.34-2.87,1-4,2.35-1.7,3-2.86.13-2.88.7-4.07,2.22-1.87,2.75-3.08-.09-2.88.39-4.11,2.07-2,2.51-3.27-.31-2.87.08-4.13,1.92-2.18,2.26-3.46-.52-2.83-.23-4.12,1.74-2.32,2-3.61-.73-2.79-.53-4.1,1.56-2.44,1.71-3.75-.94-2.73-.84-4,1.37-2.56,1.42-3.88S342.14,199.53,342.14,198.21Z" style="fill:#90CAF9;stroke:#2e353a;stroke-linecap:round;stroke-linejoin:round;stroke-width:2px"></path><line x1="205.84" y1="98.36" x2="207.69" y2="103.54" style="fill:none;stroke:#2e353a;stroke-linecap:round;stroke-linejoin:round;stroke-width:2px"></line><line x1="198.8" y1="101.14" x2="200.47" y2="105.21" style="fill:none;stroke:#2e353a;stroke-linecap:round;stroke-linejoin:round;stroke-width:2px"></line><path d="M327.65,145.94a35.45,35.45,0,0,1-10.18,6.11" style="fill:none;stroke:#2e353a;stroke-linecap:round;stroke-linejoin:round;stroke-width:2px"></path><path d="M331.35,152.79a47.86,47.86,0,0,1-4.26,2.4" style="fill:none;stroke:#2e353a;stroke-linecap:round;stroke-linejoin:round;stroke-width:2px"></path><path d="M177.7,285s4.44-5,5.18-8.7" style="fill:none;stroke:#2e353a;stroke-linecap:round;stroke-linejoin:round;stroke-width:2px"></path><path d="M165.29,274.78s3.71-4.62,4.45-5.36" style="fill:none;stroke:#2e353a;stroke-linecap:round;stroke-linejoin:round;stroke-width:2px"></path><line x1="260.45" y1="299.96" x2="258.97" y2="291.82" style="fill:none;stroke:#2e353a;stroke-linecap:round;stroke-linejoin:round;stroke-width:2px"></line><line x1="268.59" y1="298.3" x2="267.48" y2="293.67" style="fill:none;stroke:#2e353a;stroke-linecap:round;stroke-linejoin:round;stroke-width:2px"></line><line x1="302.47" y1="279.97" x2="296.18" y2="272.93" style="fill:none;stroke:#2e353a;stroke-linecap:round;stroke-linejoin:round;stroke-width:2px"></line><line x1="332.09" y1="243.68" x2="322.65" y2="238.69" style="fill:none;stroke:#2e353a;stroke-linecap:round;stroke-linejoin:round;stroke-width:2px"></line><line x1="133.08" y1="198.33" x2="141.04" y2="198.51" style="fill:none;stroke:#2e353a;stroke-linecap:round;stroke-linejoin:round;stroke-width:2px"></line><line x1="144.37" y1="198.7" x2="148.26" y2="198.88" style="fill:none;stroke:#2e353a;stroke-linecap:round;stroke-linejoin:round;stroke-width:2px"></line><path d="M143.26,244.24c.93-.37,7-2,7-2" style="fill:none;stroke:#2e353a;stroke-linecap:round;stroke-linejoin:round;stroke-width:2px"></path><path d="M260.51,96.08c-.56,1.12-1.68,7.57-1.68,7.57" style="fill:none;stroke:#2e353a;stroke-linecap:round;stroke-linejoin:round;stroke-width:2px"></path><line x1="267.79" y1="98.6" x2="266.95" y2="102.81" style="fill:none;stroke:#2e353a;stroke-linecap:round;stroke-linejoin:round;stroke-width:2px"></line><line x1="296.65" y1="112.33" x2="294.41" y2="115.13" style="fill:none;stroke:#2e353a;stroke-linecap:round;stroke-linejoin:round;stroke-width:2px"></line><line x1="150.4" y1="139.23" x2="156" y2="142.31" style="fill:none;stroke:#2e353a;stroke-linecap:round;stroke-linejoin:round;stroke-width:2px"></line><line x1="159.37" y1="143.99" x2="163.85" y2="146.51" style="fill:none;stroke:#2e353a;stroke-linecap:round;stroke-linejoin:round;stroke-width:2px"></line><path d="M266.89,167.64s-1.71-2.65-10.35-8.1-31-10.63-39.81-15.39c-8.81-4.91-18.63-14.17-22.06-18.62s-2.9-7.81-5.66-8.08-5.52,1-7.44,6.78.43,20.26,2,24.71,6.18,7.27,9.11,8.45,9.48,4.29,9.47,7.08-.36,3.34-1.57,3.55-27.81,4.15-31.91,5.34-5.87,8.66-4.7,14.55,5.81,7.74,4.41,11.92-3.81,9.08-1.43,14.63,6.85,4.69,5.11,9-1.76,9.35.46,12.59,5.15,5.34,5.13,9.27,6.84,12.58,11.15,13.81c2.13.64,21.47,2.76,40.3,2.95,18.82.48,37.13-1,37.1-1Q266.54,214.33,266.89,167.64Z" style="fill:#fff;stroke:#2e353a;stroke-linecap:round;stroke-linejoin:round;stroke-width:3px"></path><path d="M304.47,258.16q-16.8,2.54-33.72,3.74a5.21,5.21,0,0,1-5.43-5.52q.17-42.21.34-84.38a5.52,5.52,0,0,1,5.48-5.73q16.92.48,33.72,1.37a5.8,5.8,0,0,1,5.39,5.76q-.18,39.19-.35,78.44A6.62,6.62,0,0,1,304.47,258.16Z" style="fill:#2e353a;stroke:#2e353a;stroke-linecap:round;stroke-linejoin:round;stroke-width:3px"></path><path d="M279.43,251.83a3.93,3.93,0,0,0-4.13-4.12,4.67,4.67,0,0,0-4.17,4.71,3.92,3.92,0,0,0,4.13,4.15A4.75,4.75,0,0,0,279.43,251.83Z" style="fill:#fff;stroke:#2e353a;stroke-linecap:round;stroke-linejoin:round;stroke-width:3px"></path><circle cx="266.54" cy="137.26" r="20.08" style="fill:#fff"></circle><circle cx="295.11" cy="161.71" r="7.46" transform="translate(-27.91 256.04) rotate(-45)" style="fill:#fff"></circle><path d="M229.74,299.65c1.26.09,2.46,1.33,3.74,1.38s2.56-1.1,3.83-1.1,2.57,1.14,3.84,1.1,2.48-1.29,3.74-1.38,2.64,1,3.9.81,2.38-1.46,3.63-1.65,2.71.75,4,.52,2.26-1.64,3.49-1.92,2.76.55,4,.22,2.13-1.8,3.34-2.18,2.79.34,4-.08,2-2,3.17-2.42,2.81.13,4-.38,1.83-2.1,3-2.66,2.81-.08,3.93-.67,1.67-2.24,2.77-2.87,2.8-.3,3.87-1,1.5-2.36,2.55-3.07,2.76-.5,3.78-1.26,1.32-2.46,2.31-3.25,2.72-.7,3.68-1.53,1.13-2.55,2.06-3.41,2.66-.91,3.56-1.81.94-2.62,1.8-3.55,2.59-1.1,3.42-2.07.74-2.68,1.53-3.68,2.49-1.29,3.25-2.31.54-2.73,1.26-3.78,2.39-1.47,3.06-2.55.34-2.77,1-3.87,2.28-1.64,2.87-2.76.13-2.79.68-3.93,2.15-1.81,2.66-3-.09-2.78.38-4,2-2,2.42-3.17-.3-2.77.08-4,1.85-2.11,2.18-3.34-.51-2.74-.22-4,1.68-2.24,1.92-3.49-.71-2.69-.52-4,1.51-2.37,1.65-3.63-.91-2.63-.81-3.91,1.33-2.46,1.37-3.74-1.1-2.56-1.1-3.83,1.15-2.57,1.1-3.84-1.28-2.48-1.37-3.74.95-2.64.81-3.9-1.47-2.38-1.65-3.63.75-2.71.52-4-1.64-2.26-1.92-3.49a2.86,2.86,0,0,1-.05-.83c-70.4,60-158,55.37-197.89,49.16a2.46,2.46,0,0,0,.07.77c.33,1.23,1.8,2.13,2.18,3.34s-.34,2.79.08,4,2,2,2.42,3.16-.13,2.81.38,4,2.1,1.84,2.66,3,.08,2.81.67,3.93,2.24,1.67,2.87,2.77.3,2.79,1,3.86,2.36,1.5,3.07,2.55.5,2.76,1.26,3.79,2.46,1.31,3.25,2.31.7,2.71,1.53,3.68,2.55,1.13,3.41,2.06.91,2.66,1.81,3.56,2.62.93,3.55,1.8,1.1,2.58,2.07,3.41,2.68.74,3.68,1.53,1.29,2.5,2.31,3.25,2.73.54,3.78,1.26,1.47,2.39,2.55,3.07,2.77.33,3.87,1,1.64,2.27,2.76,2.87,2.79.12,3.93.68,1.81,2.14,3,2.65,2.78-.09,4,.38,2,2,3.17,2.42,2.77-.29,4,.08,2.11,1.85,3.34,2.18,2.74-.5,4-.22,2.25,1.68,3.5,1.92,2.69-.71,3.95-.52,2.37,1.51,3.63,1.65S228.46,299.56,229.74,299.65Z" style="opacity:0.2"></path></g></svg>